<svg width="1200" height="630" viewBox="0 0 1200 630" xmlns="http://www.w3.org/2000/svg">
  <!-- Subtle gradient background -->
  <defs>
    <linearGradient id="bgGradient" x1="0%" y1="0%" x2="100%" y2="100%">
      <stop offset="0%" style="stop-color:#ffffff;stop-opacity:1" />
      <stop offset="100%" style="stop-color:#f8fafc;stop-opacity:1" />
    </linearGradient>
  </defs>
  <rect width="1200" height="630" fill="url(#bgGradient)"/>
  
  <!-- Main Icon - Green Checkmark in Circle -->
  <circle cx="180" cy="315" r="90" fill="#22c55e"/>
  <path d="M140 315 L170 345 L230 285" 
        stroke="#ffffff" 
        stroke-width="14" 
        stroke-linecap="round" 
        stroke-linejoin="round" 
        fill="none"/>
  
  <!-- Main Text -->
  <text x="320" y="280" font-family="system-ui, -apple-system, sans-serif" font-size="84" font-weight="700" fill="#1f2937">tickk</text>
  
  <!-- Main Tagline -->
  <text x="320" y="330" font-family="system-ui, -apple-system, sans-serif" font-size="38" font-weight="400" fill="#16a34a">Brain dump first, organize later</text>
  
  <!-- Subtitle -->
  <text x="320" y="380" font-family="system-ui, -apple-system, sans-serif" font-size="28" font-weight="300" fill="#6b7280">Instant thought capture for busy minds</text>
  
  <!-- Features with checkmarks -->
  <g fill="#374151" font-family="system-ui, -apple-system, sans-serif" font-size="22">
    <circle cx="330" cy="428" r="8" fill="#22c55e"/>
    <path d="M326 428 L329 431 L334 426" stroke="#ffffff" stroke-width="2" stroke-linecap="round" fill="none"/>
    <text x="350" y="435">Voice-first brain dumping</text>
    
    <circle cx="330" cy="458" r="8" fill="#22c55e"/>
    <path d="M326 458 L329 461 L334 456" stroke="#ffffff" stroke-width="2" stroke-linecap="round" fill="none"/>
    <text x="350" y="465">Auto-organized tasks and notes</text>
    
    <circle cx="330" cy="488" r="8" fill="#22c55e"/>
    <path d="M326 488 L329 491 L334 486" stroke="#ffffff" stroke-width="2" stroke-linecap="round" fill="none"/>
    <text x="350" y="495">Complete privacy • Works offline</text>
  </g>
  
  <!-- Decorative elements -->
  <g opacity="0.08">
    <circle cx="950" cy="120" r="25" fill="#22c55e"/>
    <circle cx="1050" cy="480" r="20" fill="#22c55e"/>
    <circle cx="80" cy="520" r="30" fill="#22c55e"/>
  </g>
</svg>
