<svg width="1200" height="600" viewBox="0 0 1200 600" xmlns="http://www.w3.org/2000/svg">
  <!-- Subtle gradient background -->
  <defs>
    <linearGradient id="twitterBgGradient" x1="0%" y1="0%" x2="100%" y2="100%">
      <stop offset="0%" style="stop-color:#ffffff;stop-opacity:1" />
      <stop offset="100%" style="stop-color:#f8fafc;stop-opacity:1" />
    </linearGradient>
  </defs>
  <rect width="1200" height="600" fill="url(#twitterBgGradient)"/>
  
  <!-- Main Icon - Green Checkmark in Circle -->
  <circle cx="170" cy="300" r="80" fill="#22c55e"/>
  <path d="M135 300 L160 325 L215 270" 
        stroke="#ffffff" 
        stroke-width="12" 
        stroke-linecap="round" 
        stroke-linejoin="round" 
        fill="none"/>
  
  <!-- Main Text -->
  <text x="300" y="260" font-family="system-ui, -apple-system, sans-serif" font-size="76" font-weight="700" fill="#1f2937">tickk</text>
  
  <!-- Main Tagline -->
  <text x="300" y="310" font-family="system-ui, -apple-system, sans-serif" font-size="34" font-weight="400" fill="#16a34a">Brain dump first, organize later</text>
  
  <!-- Subtitle -->
  <text x="300" y="350" font-family="system-ui, -apple-system, sans-serif" font-size="26" font-weight="300" fill="#6b7280">Instant thought capture for busy minds</text>
  
  <!-- Features with checkmarks -->
  <g fill="#374151" font-family="system-ui, -apple-system, sans-serif" font-size="20">
    <circle cx="310" cy="388" r="7" fill="#22c55e"/>
    <path d="M307 388 L309 390 L313 386" stroke="#ffffff" stroke-width="1.5" stroke-linecap="round" fill="none"/>
    <text x="325" y="395">Voice-first brain dumping</text>
    
    <circle cx="310" cy="413" r="7" fill="#22c55e"/>
    <path d="M307 413 L309 415 L313 411" stroke="#ffffff" stroke-width="1.5" stroke-linecap="round" fill="none"/>
    <text x="325" y="420">Auto-organized tasks and notes</text>
    
    <circle cx="310" cy="438" r="7" fill="#22c55e"/>
    <path d="M307 438 L309 440 L313 436" stroke="#ffffff" stroke-width="1.5" stroke-linecap="round" fill="none"/>
    <text x="325" y="445">Complete privacy • Works offline</text>
  </g>
  
  <!-- Decorative elements -->
  <g opacity="0.06">
    <circle cx="950" cy="150" r="30" fill="#22c55e"/>
    <circle cx="1050" cy="450" r="25" fill="#22c55e"/>
    <circle cx="80" cy="480" r="35" fill="#22c55e"/>
  </g>
</svg>
